<svg xmlns="http://www.w3.org/2000/svg" x="0px" y="0px"
     width="100" height="100"
     viewBox="0 0 172 172"
     style=" fill:#000000;">
    <g fill="none" fill-rule="nonzero" stroke="none" stroke-width="1" stroke-linecap="butt" stroke-linejoin="miter"
       stroke-miterlimit="10" stroke-dasharray="" stroke-dashoffset="0" font-family="none" font-weight="none"
       font-size="none" text-anchor="none" style="mix-blend-mode: normal">
        <path d="M0,172v-172h172v172z" fill="none"></path>
        <g fill="#ffffff">
            <path d="M86,6.88c-43.62608,0 -79.12,35.49048 -79.12,79.12c0,43.62952 35.49392,79.12 79.12,79.12c43.62608,0 79.12,-35.49048 79.12,-79.12c0,-43.62952 -35.49392,-79.12 -79.12,-79.12zM94.74448,112.55336c-11.34168,0 -15.53504,-7.35472 -15.53504,-7.35472c0,0 -2.02272,7.94296 -3.51224,13.588c-1.48952,5.64504 -1.74408,5.7276 -3.18888,8.91304c-1.62024,3.57416 -5.59344,9.19856 -6.76304,10.92888c-0.93224,1.37944 -2.08808,2.5284 -2.76576,2.39424c-0.67768,-0.13072 -0.67768,-0.8428 -0.8428,-2.33232c-0.22704,-2.0468 -0.88752,-8.92336 -0.57104,-13.57424c0.2064,-3.0272 1.26248,-8.15624 1.26248,-8.15624l7.654,-31.33152c-4.70592,-9.65608 -0.84624,-24.74048 9.87624,-24.74048c7.60584,0 9.5976,6.88344 7.26872,15.15664c-1.03544,3.69112 -4.28624,14.04208 -4.386,14.53056c-0.09976,0.48848 -0.34056,1.52048 -0.28552,2.53872c0,3.02032 2.30824,9.19168 10.3028,9.19168c12.87936,0 18.97848,-19.0404 18.97848,-31.77528c0,-10.24088 -6.50848,-22.61112 -25.51104,-22.61112c-19.36032,0 -30.03808,14.73352 -30.03808,28.25616c0,7.5852 2.9928,10.63304 4.37912,12.30488c1.12832,1.3588 0.55728,2.66256 0.55728,2.66256l-1.2212,4.902c-0.45064,1.62024 -1.89888,2.45272 -3.93192,1.26592c-2.03648,-1.1696 -11.75104,-5.28384 -11.75104,-22.83816c0,-17.98776 16.94544,-36.63256 43.24424,-36.63256c20.87736,0 39.31576,13.13048 39.31576,34.40344c0,26.26096 -16.40192,40.30992 -32.53552,40.30992z"></path>
        </g>
    </g>
</svg>