<svg xmlns="http://www.w3.org/2000/svg" x="0px" y="0px"
     width="100" height="100"
     viewBox="0 0 172 172"
     style=" fill:#000000;">
    <g fill="none" fill-rule="nonzero" stroke="none" stroke-width="1" stroke-linecap="butt" stroke-linejoin="miter"
       stroke-miterlimit="10" stroke-dasharray="" stroke-dashoffset="0" font-family="none" font-weight="none"
       font-size="none" text-anchor="none" style="mix-blend-mode: normal">
        <path d="M0,172v-172h172v172z" fill="none"></path>
        <g fill="#ffffff">
            <path d="M91.53625,6.88c-2.28437,0 -4.48812,0.9675 -6.03344,2.63375l-44.22281,45.52625v61.92l44.22281,45.52625c1.54531,1.67969 3.74906,2.63375 6.03344,2.63375c4.52844,0 8.22375,-3.69531 8.22375,-8.22375v-141.7925c0,-4.52844 -3.69531,-8.22375 -8.22375,-8.22375zM136.55188,35.85125l-3.85656,5.68406c15.25156,8.96281 25.54469,25.51781 25.54469,44.46469c0,18.94688 -10.29312,35.50188 -25.54469,44.46469l3.85656,5.68406c17.07906,-10.2125 28.56812,-28.83687 28.56812,-50.14875c0,-21.31187 -11.48906,-39.93625 -28.56812,-50.14875zM124.95531,52.90344l-3.89688,5.72438c9.82281,5.20031 16.54156,15.50687 16.54156,27.37219c0,11.86531 -6.71875,22.17188 -16.54156,27.37219l3.89688,5.72438c11.63687,-6.47688 19.52469,-18.86625 19.52469,-33.09656c0,-14.23031 -7.88781,-26.61969 -19.52469,-33.09656zM17.2,55.04c-5.68406,0 -10.32,4.63594 -10.32,10.32v41.28c0,5.68406 4.63594,10.32 10.32,10.32h17.2v-61.92zM113.25125,70.13031l-4.01781,5.92594c4.43438,1.15563 7.72656,5.14656 7.72656,9.94375c0,4.79719 -3.29219,8.78813 -7.72656,9.94375l4.01781,5.92594c6.20813,-2.60687 10.58875,-8.73437 10.58875,-15.86969c0,-7.13531 -4.38062,-13.27625 -10.58875,-15.86969z"></path>
        </g>
    </g>
</svg>